<svg width="44" height="44" viewBox="0 0 44 44" fill="none" xmlns="http://www.w3.org/2000/svg">
<rect width="44" height="44" rx="12" fill="white"/>
<path d="M25.3336 16.2955C25.7248 15.9013 26.3582 15.9017 26.749 16.2955L31.6751 21.259C31.8744 21.444 31.9993 21.7089 31.9993 22.0007C31.9993 22.2993 31.8684 22.5697 31.6609 22.7552L26.749 27.7045C26.3578 28.0987 25.7244 28.0983 25.3336 27.7045C24.9428 27.3107 24.9424 26.6725 25.3336 26.2784L28.5782 23.0091L13.0006 23.0091C12.4483 23.0091 12.0006 22.553 12.0006 22.0007C12.0006 21.4484 12.4483 20.9923 13.0006 20.9923L28.5796 20.9923L25.3336 17.7216C25.1511 17.5378 25.054 17.3007 25.042 17.0601C25.0278 16.7854 25.1249 16.5058 25.3336 16.2955Z" fill="#1B558D"/>
</svg>
